<?xml version="1.0" encoding="UTF-8"?>
<svg xmlns="http://www.w3.org/2000/svg" viewBox="0 0 256 256" width="256" height="256">
  <!-- Background circle with gradient -->
  <defs>
    <linearGradient id="bgGradient" x1="0%" y1="0%" x2="100%" y2="100%">
      <stop offset="0%" style="stop-color:#2E8B57;stop-opacity:1" />
      <stop offset="100%" style="stop-color:#228B22;stop-opacity:1" />
    </linearGradient>
    
    <linearGradient id="chartGradient" x1="0%" y1="0%" x2="0%" y2="100%">
      <stop offset="0%" style="stop-color:#FFD700;stop-opacity:0.9" />
      <stop offset="100%" style="stop-color:#FFA500;stop-opacity:0.7" />
    </linearGradient>
    
    <filter id="shadow" x="-20%" y="-20%" width="140%" height="140%">
      <feDropShadow dx="3" dy="3" stdDeviation="3" flood-color="#000000" flood-opacity="0.3"/>
    </filter>
  </defs>
  
  <!-- Main background circle -->
  <circle cx="128" cy="128" r="120" fill="url(#bgGradient)" filter="url(#shadow)"/>
  
  <!-- Inner circle for contrast -->
  <circle cx="128" cy="128" r="100" fill="#FFFFFF" opacity="0.95"/>
  
  <!-- Pound sterling symbol (£) - main focal point -->
  <g transform="translate(85, 60)">
    <path d="M25 10 Q35 10 40 20 Q40 30 35 35 L35 45 L45 45 L45 52 L35 52 L35 65 Q35 75 25 80 Q15 80 10 75 Q5 70 10 65 L15 65 Q20 65 20 60 L20 52 L5 52 L5 45 L20 45 L20 35 Q15 30 15 25 Q15 15 25 10 Z" 
          fill="#2E8B57" 
          stroke="#1F5F3F" 
          stroke-width="2"/>
  </g>
  
  <!-- Chart bars representing spending data -->
  <g transform="translate(140, 80)">
    <!-- Bar 1 -->
    <rect x="0" y="40" width="12" height="30" fill="url(#chartGradient)" rx="2"/>
    <!-- Bar 2 -->
    <rect x="18" y="25" width="12" height="45" fill="url(#chartGradient)" rx="2"/>
    <!-- Bar 3 -->
    <rect x="36" y="35" width="12" height="35" fill="url(#chartGradient)" rx="2"/>
    <!-- Bar 4 -->
    <rect x="54" y="15" width="12" height="55" fill="url(#chartGradient)" rx="2"/>
    
    <!-- Chart base line -->
    <line x1="-5" y1="72" x2="75" y2="72" stroke="#2E8B57" stroke-width="2"/>
  </g>
  
  <!-- Calculator/ledger elements at bottom -->
  <g transform="translate(60, 160)">
    <!-- Ledger/notebook representation -->
    <rect x="0" y="0" width="80" height="50" fill="#F5F5F5" stroke="#2E8B57" stroke-width="2" rx="3"/>
    
    <!-- Ledger lines -->
    <line x1="10" y1="15" x2="70" y2="15" stroke="#2E8B57" stroke-width="1" opacity="0.6"/>
    <line x1="10" y1="25" x2="70" y2="25" stroke="#2E8B57" stroke-width="1" opacity="0.6"/>
    <line x1="10" y1="35" x2="70" y2="35" stroke="#2E8B57" stroke-width="1" opacity="0.6"/>
    
    <!-- Pen/stylus icon -->
    <g transform="translate(85, 20)">
      <line x1="0" y1="0" x2="15" y2="15" stroke="#2E8B57" stroke-width="3" stroke-linecap="round"/>
      <circle cx="17" cy="17" r="3" fill="#FFD700"/>
    </g>
  </g>
  
  <!-- Small decorative coins -->
  <circle cx="190" cy="60" r="8" fill="#FFD700" stroke="#FFA500" stroke-width="1"/>
  <circle cx="210" cy="75" r="6" fill="#FFD700" stroke="#FFA500" stroke-width="1"/>
  
  <!-- Subtle grid pattern overlay for tracking theme -->
  <defs>
    <pattern id="grid" width="20" height="20" patternUnits="userSpaceOnUse">
      <path d="M 20 0 L 0 0 0 20" fill="none" stroke="#2E8B57" stroke-width="0.5" opacity="0.1"/>
    </pattern>
  </defs>
  <rect x="28" y="28" width="200" height="200" fill="url(#grid)"/>
</svg>